<svg width="30" height="30" viewBox="0 0 30 30" fill="none" xmlns="http://www.w3.org/2000/svg">
<path fill-rule="evenodd" clip-rule="evenodd" d="M15 2.5C8.1 2.5 2.5 8.1 2.5 15C2.5 21.9 8.1 27.5 15 27.5C21.9 27.5 27.5 21.9 27.5 15C27.5 8.1 21.9 2.5 15 2.5ZM15 8.75C14.3125 8.75 13.75 9.3125 13.75 10V13.75H10C9.3125 13.75 8.75 14.3125 8.75 15C8.75 15.6875 9.3125 16.25 10 16.25H13.75V20C13.75 20.6875 14.3125 21.25 15 21.25C15.6875 21.25 16.25 20.6875 16.25 20V16.25H20C20.6875 16.25 21.25 15.6875 21.25 15C21.25 14.3125 20.6875 13.75 20 13.75H16.25V10C16.25 9.3125 15.6875 8.75 15 8.75ZM5 15C5 20.5125 9.4875 25 15 25C20.5125 25 25 20.5125 25 15C25 9.4875 20.5125 5 15 5C9.4875 5 5 9.4875 5 15Z" fill="white"/>
</svg>
