<svg width="40" height="40" viewBox="0 0 40 40" fill="none" xmlns="http://www.w3.org/2000/svg">
<path d="M30.5 9.51659C30.1886 9.20451 29.7659 9.02912 29.325 9.02912C28.8842 9.02912 28.4614 9.20451 28.15 9.51659L20 17.6499L11.85 9.49993C11.5386 9.18784 11.1159 9.01245 10.675 9.01245C10.2341 9.01245 9.8114 9.18784 9.50001 9.49993C8.85001 10.1499 8.85001 11.1999 9.50001 11.8499L17.65 19.9999L9.50001 28.1499C8.85001 28.7999 8.85001 29.8499 9.50001 30.4999C10.15 31.1499 11.2 31.1499 11.85 30.4999L20 22.3499L28.15 30.4999C28.8 31.1499 29.85 31.1499 30.5 30.4999C31.15 29.8499 31.15 28.7999 30.5 28.1499L22.35 19.9999L30.5 11.8499C31.1333 11.2166 31.1333 10.1499 30.5 9.51659Z" fill="white"/>
</svg>
