<svg width="20" height="20" viewBox="0 0 20 20" fill="none" xmlns="http://www.w3.org/2000/svg">
<path fill-rule="evenodd" clip-rule="evenodd" d="M18 0H6C4.9 0 4 0.9 4 2V14C4 15.1 4.9 16 6 16H18C19.1 16 20 15.1 20 14V2C20 0.9 19.1 0 18 0ZM1 4C0.45 4 0 4.45 0 5V18C0 19.1 0.9 20 2 20H15C15.55 20 16 19.55 16 19C16 18.45 15.55 18 15 18H3C2.45 18 2 17.55 2 17V5C2 4.45 1.55 4 1 4ZM8 9H16C16.55 9 17 8.55 17 8C17 7.45 16.55 7 16 7H8C7.45 7 7 7.45 7 8C7 8.55 7.45 9 8 9ZM12 13H8C7.45 13 7 12.55 7 12C7 11.45 7.45 11 8 11H12C12.55 11 13 11.45 13 12C13 12.55 12.55 13 12 13ZM8 5H16C16.55 5 17 4.55 17 4C17 3.45 16.55 3 16 3H8C7.45 3 7 3.45 7 4C7 4.55 7.45 5 8 5Z" fill="#C9C9C9"/>
</svg>
