<svg width="24" height="24" viewBox="0 0 24 24" fill="none" xmlns="http://www.w3.org/2000/svg">
<path fill-rule="evenodd" clip-rule="evenodd" d="M12.0002 5.26717C13.7602 3.20717 17.0202 2.36717 19.6602 4.16717C21.0602 5.12717 21.9402 6.74717 22.0002 8.44717C22.1302 12.3272 18.7002 15.4372 13.4502 20.1972L13.3402 20.2972C12.5802 20.9972 11.4102 20.9972 10.6502 20.3072L10.5502 20.2172L10.4898 20.1623C5.27384 15.4233 1.86075 12.3223 2.00021 8.45717C2.06021 6.74717 2.94021 5.12717 4.34021 4.16717C6.98021 2.35717 10.2402 3.20717 12.0002 5.26717ZM12.0002 18.8272L12.1002 18.7272C16.8602 14.4172 20.0002 11.5672 20.0002 8.67717C20.0002 6.67717 18.5002 5.17717 16.5002 5.17717C14.9602 5.17717 13.4602 6.16717 12.9402 7.53717H11.0702C10.5402 6.16717 9.04021 5.17717 7.50021 5.17717C5.50021 5.17717 4.00021 6.67717 4.00021 8.67717C4.00021 11.5672 7.14021 14.4172 11.9002 18.7272L12.0002 18.8272Z" fill="#C9C9C9"/>
</svg>
