<svg width="30" height="30" viewBox="0 0 30 30" fill="none" xmlns="http://www.w3.org/2000/svg">
<path fill-rule="evenodd" clip-rule="evenodd" d="M25 2.5H10C8.625 2.5 7.5 3.625 7.5 5V20C7.5 21.375 8.625 22.5 10 22.5H25C26.375 22.5 27.5 21.375 27.5 20V5C27.5 3.625 26.375 2.5 25 2.5ZM21.25 8.75H18.75V15.4625C18.75 17.05 17.625 18.5125 16.05 18.7125C13.9375 19 12.1625 17.15 12.55 15.025C12.8 13.65 14.025 12.5875 15.425 12.5C16.2125 12.45 16.925 12.7 17.5 13.1375V7.5C17.5 6.8125 18.0625 6.25 18.75 6.25H21.25C21.9375 6.25 22.5 6.8125 22.5 7.5C22.5 8.1875 21.9375 8.75 21.25 8.75ZM2.5 8.75C2.5 8.0625 3.0625 7.5 3.75 7.5C4.4375 7.5 5 8.0625 5 8.75V23.75C5 24.4375 5.5625 25 6.25 25H21.25C21.9375 25 22.5 25.5625 22.5 26.25C22.5 26.9375 21.9375 27.5 21.25 27.5H5C3.625 27.5 2.5 26.375 2.5 25V8.75Z" fill="#C9C9C9"/>
</svg>
