<svg width="230" height="100" viewBox="0 0 230 100" fill="none" xmlns="http://www.w3.org/2000/svg">
<circle cx="50.5" cy="50" r="48" fill="#191922" stroke="#C9C9C9" stroke-width="4"/>
<path d="M47 77V20H53L77.5 45L73.5 49L53 28V85H47L22.5 60L26.5 56L47 77Z" fill="white" stroke="white" stroke-width="0.5"/>
<path d="M119.372 56.84L119.3 52.34C119.444 52.244 119.636 52.196 119.876 52.196C120.14 52.196 120.38 52.28 120.596 52.448L121.568 56.732C122.24 57.02 122.984 57.248 123.8 57.416C124.64 57.584 125.516 57.668 126.428 57.668C128.42 57.668 129.968 57.26 131.072 56.444C132.2 55.604 132.764 54.44 132.764 52.952C132.764 51.8 132.356 50.864 131.54 50.144C130.724 49.4 129.284 48.68 127.22 47.984C125.324 47.36 123.812 46.724 122.684 46.076C121.58 45.404 120.776 44.672 120.272 43.88C119.792 43.064 119.552 42.128 119.552 41.072C119.552 39.296 120.2 37.916 121.496 36.932C122.792 35.924 124.592 35.42 126.896 35.42C128.936 35.42 130.844 35.852 132.62 36.716C132.764 36.884 132.896 37.064 133.016 37.256C133.136 37.448 133.232 37.628 133.304 37.796L133.376 42.116C133.232 42.212 133.04 42.26 132.8 42.26C132.536 42.26 132.296 42.176 132.08 42.008L131.108 37.94C129.764 37.364 128.36 37.076 126.896 37.076C125.192 37.076 123.884 37.424 122.972 38.12C122.06 38.792 121.604 39.776 121.604 41.072C121.604 41.84 121.772 42.5 122.108 43.052C122.468 43.604 123.08 44.12 123.944 44.6C124.832 45.08 126.056 45.584 127.616 46.112C130.232 47.024 132.092 47.996 133.196 49.028C134.3 50.06 134.852 51.368 134.852 52.952C134.852 54.944 134.108 56.516 132.62 57.668C131.132 58.796 129.068 59.36 126.428 59.36C125.204 59.36 124.028 59.24 122.9 59C121.772 58.736 120.824 58.376 120.056 57.92C119.912 57.752 119.78 57.572 119.66 57.38C119.54 57.188 119.444 57.008 119.372 56.84ZM145.376 59H137.708C137.636 58.808 137.6 58.64 137.6 58.496C137.6 58.304 137.672 58.076 137.816 57.812L140.624 57.524V42.692H137.708C137.636 42.524 137.6 42.356 137.6 42.188C137.6 41.972 137.672 41.744 137.816 41.504L141.56 40.82C141.968 41.036 142.304 41.3 142.568 41.612V57.452H145.016C145.4 57.452 145.592 57.62 145.592 57.956C145.592 58.1 145.544 58.352 145.448 58.712L145.376 59ZM142.676 36.248C142.676 36.704 142.532 37.076 142.244 37.364C141.956 37.628 141.56 37.76 141.056 37.76C140.552 37.76 140.156 37.628 139.868 37.364C139.58 37.076 139.436 36.704 139.436 36.248C139.436 35.792 139.58 35.432 139.868 35.168C140.156 34.88 140.552 34.736 141.056 34.736C141.56 34.736 141.956 34.88 142.244 35.168C142.532 35.432 142.676 35.792 142.676 36.248ZM153.527 55.508H157.631C159.623 55.508 161.195 55.94 162.347 56.804C163.523 57.668 164.111 58.832 164.111 60.296C164.111 62.024 163.331 63.404 161.771 64.436C160.211 65.492 158.135 66.02 155.543 66.02C153.023 66.02 151.043 65.552 149.603 64.616C148.163 63.68 147.443 62.396 147.443 60.764C147.443 59.012 148.487 57.536 150.575 56.336C149.975 55.856 149.675 55.196 149.675 54.356C149.675 53.204 150.263 52.112 151.439 51.08C150.119 49.976 149.459 48.476 149.459 46.58C149.459 44.804 150.035 43.376 151.187 42.296C152.363 41.192 153.899 40.64 155.795 40.64C157.427 40.64 158.783 41.048 159.863 41.864L163.715 41.396C164.099 41.372 164.291 41.54 164.291 41.9C164.291 42.044 164.243 42.296 164.147 42.656L164.039 43.052H161.051C161.387 43.532 161.651 44.072 161.843 44.672C162.035 45.248 162.131 45.884 162.131 46.58C162.131 48.356 161.543 49.796 160.367 50.9C159.215 51.98 157.691 52.52 155.795 52.52C154.571 52.52 153.479 52.28 152.519 51.8C151.847 52.4 151.511 53.108 151.511 53.924C151.511 54.98 152.183 55.508 153.527 55.508ZM157.631 57.092H152.771C152.435 57.092 152.111 57.056 151.799 56.984C150.215 58.016 149.423 59.24 149.423 60.656C149.423 61.808 149.975 62.72 151.079 63.392C152.183 64.088 153.671 64.436 155.543 64.436C157.535 64.436 159.131 64.052 160.331 63.284C161.531 62.54 162.131 61.544 162.131 60.296C162.131 59.288 161.735 58.508 160.943 57.956C160.151 57.38 159.047 57.092 157.631 57.092ZM160.295 46.58C160.295 45.236 159.887 44.168 159.071 43.376C158.255 42.584 157.163 42.188 155.795 42.188C154.427 42.188 153.335 42.584 152.519 43.376C151.703 44.168 151.295 45.236 151.295 46.58C151.295 47.924 151.703 48.992 152.519 49.784C153.335 50.576 154.427 50.972 155.795 50.972C157.163 50.972 158.255 50.576 159.071 49.784C159.887 48.992 160.295 47.924 160.295 46.58ZM186.583 59H179.635C179.563 58.808 179.527 58.64 179.527 58.496C179.527 58.304 179.599 58.076 179.743 57.812L182.191 57.524V47.3C182.191 43.916 180.763 42.224 177.907 42.224C176.779 42.224 175.735 42.56 174.775 43.232C173.839 43.88 173.083 44.756 172.507 45.86C171.931 46.94 171.643 48.128 171.643 49.424V57.452H173.731C174.115 57.452 174.307 57.62 174.307 57.956C174.307 58.1 174.259 58.352 174.163 58.712L174.091 59H167.143C167.071 58.808 167.035 58.64 167.035 58.496C167.035 58.304 167.107 58.076 167.251 57.812L169.699 57.524V42.692H166.963C166.891 42.524 166.855 42.356 166.855 42.188C166.855 41.972 166.927 41.744 167.071 41.504L170.635 40.82C171.043 41.036 171.379 41.3 171.643 41.612L171.391 45.212C172.063 43.748 172.987 42.62 174.163 41.828C175.339 41.036 176.695 40.64 178.231 40.64C180.151 40.64 181.615 41.216 182.623 42.368C183.631 43.496 184.135 45.14 184.135 47.3V57.452H186.223C186.607 57.452 186.799 57.62 186.799 57.956C186.799 58.1 186.751 58.352 186.655 58.712L186.583 59ZM205.634 59H197.966C197.894 58.808 197.858 58.64 197.858 58.496C197.858 58.304 197.93 58.076 198.074 57.812L200.882 57.524V42.692H197.966C197.894 42.524 197.858 42.356 197.858 42.188C197.858 41.972 197.93 41.744 198.074 41.504L201.818 40.82C202.226 41.036 202.562 41.3 202.826 41.612V57.452H205.274C205.658 57.452 205.85 57.62 205.85 57.956C205.85 58.1 205.802 58.352 205.706 58.712L205.634 59ZM202.934 36.248C202.934 36.704 202.79 37.076 202.502 37.364C202.214 37.628 201.818 37.76 201.314 37.76C200.81 37.76 200.414 37.628 200.126 37.364C199.838 37.076 199.694 36.704 199.694 36.248C199.694 35.792 199.838 35.432 200.126 35.168C200.414 34.88 200.81 34.736 201.314 34.736C201.818 34.736 202.214 34.88 202.502 35.168C202.79 35.432 202.934 35.792 202.934 36.248ZM227.997 59H221.049C220.977 58.808 220.941 58.64 220.941 58.496C220.941 58.304 221.013 58.076 221.157 57.812L223.605 57.524V47.3C223.605 43.916 222.177 42.224 219.321 42.224C218.193 42.224 217.149 42.56 216.189 43.232C215.253 43.88 214.497 44.756 213.921 45.86C213.345 46.94 213.057 48.128 213.057 49.424V57.452H215.145C215.529 57.452 215.721 57.62 215.721 57.956C215.721 58.1 215.673 58.352 215.577 58.712L215.505 59H208.557C208.485 58.808 208.449 58.64 208.449 58.496C208.449 58.304 208.521 58.076 208.665 57.812L211.113 57.524V42.692H208.377C208.305 42.524 208.269 42.356 208.269 42.188C208.269 41.972 208.341 41.744 208.485 41.504L212.049 40.82C212.457 41.036 212.793 41.3 213.057 41.612L212.805 45.212C213.477 43.748 214.401 42.62 215.577 41.828C216.753 41.036 218.109 40.64 219.645 40.64C221.565 40.64 223.029 41.216 224.037 42.368C225.045 43.496 225.549 45.14 225.549 47.3V57.452H227.637C228.021 57.452 228.213 57.62 228.213 57.956C228.213 58.1 228.165 58.352 228.069 58.712L227.997 59Z" fill="white"/>
</svg>
