<svg width="30" height="30" viewBox="0 0 30 30" fill="none" xmlns="http://www.w3.org/2000/svg">
<path fill-rule="evenodd" clip-rule="evenodd" d="M4.375 6.25171H16.875C17.5625 6.25171 18.125 6.81421 18.125 7.50171C18.125 8.18921 17.5625 8.75171 16.875 8.75171H4.375C3.6875 8.75171 3.125 8.18921 3.125 7.50171C3.125 6.81421 3.6875 6.25171 4.375 6.25171ZM4.375 11.2517H16.875C17.5625 11.2517 18.125 11.8142 18.125 12.5017C18.125 13.1892 17.5625 13.7517 16.875 13.7517H4.375C3.6875 13.7517 3.125 13.1892 3.125 12.5017C3.125 11.8142 3.6875 11.2517 4.375 11.2517ZM4.375 18.7517H11.875C12.5625 18.7517 13.125 18.1892 13.125 17.5017C13.125 16.8142 12.5625 16.2517 11.875 16.2517H4.375C3.6875 16.2517 3.125 16.8142 3.125 17.5017C3.125 18.1892 3.6875 18.7517 4.375 18.7517ZM20.625 8.75171C20.625 7.37671 21.75 6.25171 23.125 6.25171H25.625C26.3125 6.25171 26.875 6.81421 26.875 7.50171C26.875 8.18921 26.3125 8.75171 25.625 8.75171H23.125V20.0017C23.125 22.3017 21.075 24.1017 18.7 23.6892C17.1875 23.4267 15.95 22.1892 15.6875 20.6767C15.275 18.3017 17.075 16.2517 19.375 16.2517C19.8125 16.2517 20.2375 16.3392 20.625 16.4767V8.75171Z" fill="#C9C9C9"/>
</svg>
