<svg width="30" height="30" viewBox="0 0 30 30" fill="none" xmlns="http://www.w3.org/2000/svg">
<path fill-rule="evenodd" clip-rule="evenodd" d="M8.75001 8.74999H21.25V10.9875C21.25 11.55 21.925 11.825 22.3125 11.425L25.8 7.93749C26.05 7.68749 26.05 7.29999 25.8 7.04999L22.3125 3.56249C21.925 3.17499 21.25 3.44999 21.25 4.01249V6.24999H7.50001C6.81251 6.24999 6.25001 6.81249 6.25001 7.49999V12.5C6.25001 13.1875 6.81251 13.75 7.50001 13.75C8.18751 13.75 8.75001 13.1875 8.75001 12.5V8.74999ZM21.25 21.25H8.75001V19.0125C8.75001 18.45 8.07501 18.175 7.68751 18.575L4.20001 22.0625C3.95001 22.3125 3.95001 22.7 4.20001 22.95L7.68751 26.4375C8.07501 26.825 8.75001 26.55 8.75001 25.9875V23.75H22.5C23.1875 23.75 23.75 23.1875 23.75 22.5V17.5C23.75 16.8125 23.1875 16.25 22.5 16.25C21.8125 16.25 21.25 16.8125 21.25 17.5V21.25ZM16.25 12.2625V17.8125C16.25 18.325 15.825 18.75 15.3125 18.75C14.8 18.75 14.375 18.325 14.375 17.8125V13.75H13.275C12.85 13.75 12.5 13.4 12.5 12.975C12.5 12.6875 12.6625 12.4125 12.925 12.2875L14.7875 11.3625C14.925 11.2875 15.075 11.25 15.2375 11.25C15.8 11.25 16.25 11.7 16.25 12.2625Z" fill="#23AECD"/>
</svg>
