<svg width="24" height="24" viewBox="0 0 24 24" fill="none" xmlns="http://www.w3.org/2000/svg">
<path d="M19.4323 12.98L17.9439 12.7939L17.8384 13.6378L18.5083 14.1616L19.4323 12.98ZM21.5423 14.63L22.4718 13.4527L22.4663 13.4484L21.5423 14.63ZM21.6623 15.27L22.9609 16.0207L22.9702 16.0046L22.9791 15.9883L21.6623 15.27ZM19.6623 18.73L18.3636 17.9793L18.3543 17.9954L18.3454 18.0117L19.6623 18.73ZM19.0523 18.95L18.4932 20.342L18.5057 20.3469L19.0523 18.95ZM16.5623 17.95L17.1213 16.5581L16.3378 16.2434L15.6623 16.75L16.5623 17.95ZM14.8723 18.93L14.3034 17.542L13.5093 17.8675L13.3875 18.7171L14.8723 18.93ZM14.4923 21.58L13.0075 21.3671L13.0055 21.3805L13.0039 21.3939L14.4923 21.58ZM9.51228 21.58L11.0007 21.3939L10.999 21.3805L10.9971 21.3671L9.51228 21.58ZM9.13228 18.93L10.6171 18.7171L10.4953 17.8675L9.70112 17.542L9.13228 18.93ZM7.44228 17.95L8.35685 16.7611L7.67801 16.2389L6.88327 16.5581L7.44228 17.95ZM4.95228 18.95L5.46489 20.3597L5.48824 20.3512L5.51129 20.3419L4.95228 18.95ZM4.34228 18.73L5.65912 18.0117L5.65023 17.9954L5.64093 17.9793L4.34228 18.73ZM2.34228 15.27L1.02544 15.9883L1.03433 16.0046L1.04363 16.0207L2.34228 15.27ZM2.46228 14.63L1.53826 13.4484L1.53282 13.4527L2.46228 14.63ZM4.57228 12.98L5.49629 14.1616L6.16618 13.6378L6.0607 12.7939L4.57228 12.98ZM4.57228 11.02L6.0607 11.2061L6.16618 10.3622L5.49629 9.83839L4.57228 11.02ZM2.46228 9.37L1.5328 10.5473L1.53827 10.5516L2.46228 9.37ZM2.34228 8.73L3.63367 9.49309L3.63733 9.4869L3.64093 9.48067L2.34228 8.73ZM4.34228 5.27L5.64093 6.02067L5.65023 6.00458L5.65912 5.98828L4.34228 5.27ZM4.95228 5.05L5.51132 3.658L5.49888 3.65314L4.95228 5.05ZM7.44228 6.05L6.88327 7.44194L7.6668 7.75661L8.34228 7.25L7.44228 6.05ZM9.13228 5.07L9.70112 6.45796L10.4953 6.13249L10.6171 5.28292L9.13228 5.07ZM9.51228 2.42L10.9971 2.63292L10.999 2.6195L11.0007 2.60605L9.51228 2.42ZM14.4923 2.42L13.0039 2.60605L13.0055 2.6195L13.0075 2.63292L14.4923 2.42ZM14.8723 5.07L13.3875 5.28292L13.5093 6.13249L14.3034 6.45796L14.8723 5.07ZM16.5623 6.05L15.6477 7.23894L16.3266 7.76112L17.1213 7.44194L16.5623 6.05ZM19.0523 5.05L18.5397 3.64031L18.5163 3.6488L18.4933 3.65806L19.0523 5.05ZM19.6623 5.27L18.3454 5.98828L18.3543 6.00459L18.3636 6.02067L19.6623 5.27ZM21.6623 8.73L22.9791 8.01172L22.9702 7.99541L22.9609 7.97933L21.6623 8.73ZM21.5423 9.37L22.4663 10.5516L22.4717 10.5473L21.5423 9.37ZM19.4323 11.02L18.5083 9.83839L17.8384 10.3622L17.9439 11.2061L19.4323 11.02ZM20.9207 13.1661C20.9644 12.8168 21.0023 12.428 21.0023 12H18.0023C18.0023 12.252 17.9802 12.5032 17.9439 12.7939L20.9207 13.1661ZM22.4663 13.4484L20.3563 11.7984L18.5083 14.1616L20.6183 15.8116L22.4663 13.4484ZM22.9791 15.9883C23.4278 15.1656 23.2699 14.0828 22.4717 13.4527L20.6128 15.8073C20.1946 15.4772 20.1367 14.9344 20.3454 14.5517L22.9791 15.9883ZM20.9609 19.4807L22.9609 16.0207L20.3636 14.5193L18.3636 17.9793L20.9609 19.4807ZM18.5057 20.3469C19.4218 20.7054 20.4886 20.3475 20.9791 19.4483L18.3454 18.0117C18.5959 17.5525 19.1427 17.3746 19.5989 17.5531L18.5057 20.3469ZM16.0033 19.3419L18.4933 20.3419L19.6113 17.5581L17.1213 16.5581L16.0033 19.3419ZM15.4411 20.318C16.1943 20.0093 16.8647 19.5982 17.4623 19.15L15.6623 16.75C15.2198 17.0818 14.7703 17.3507 14.3034 17.542L15.4411 20.318ZM15.9771 21.7929L16.3571 19.1429L13.3875 18.7171L13.0075 21.3671L15.9771 21.7929ZM14.0023 23.5C14.9695 23.5 15.8521 22.795 15.9807 21.7661L13.0039 21.3939C13.0725 20.845 13.5351 20.5 14.0023 20.5V23.5ZM10.0023 23.5H14.0023V20.5H10.0023V23.5ZM8.02386 21.7661C8.15248 22.795 9.03505 23.5 10.0023 23.5V20.5C10.4695 20.5 10.9321 20.845 11.0007 21.3939L8.02386 21.7661ZM7.64747 19.1429L8.02747 21.7929L10.9971 21.3671L10.6171 18.7171L7.64747 19.1429ZM6.52771 19.1389C7.14557 19.6142 7.82084 20.0136 8.56345 20.318L9.70112 17.542C9.22372 17.3464 8.77899 17.0858 8.35685 16.7611L6.52771 19.1389ZM5.51129 20.3419L8.00129 19.3419L6.88327 16.5581L4.39327 17.5581L5.51129 20.3419ZM3.02544 19.4483C3.54113 20.3937 4.6308 20.663 5.46489 20.3597L4.43967 17.5403C4.83376 17.397 5.38343 17.5063 5.65912 18.0117L3.02544 19.4483ZM1.04363 16.0207L3.04363 19.4807L5.64093 17.9793L3.64093 14.5193L1.04363 16.0207ZM1.53282 13.4527C0.734624 14.0828 0.57673 15.1656 1.02544 15.9883L3.65912 14.5517C3.86783 14.9344 3.80994 15.4772 3.39175 15.8073L1.53282 13.4527ZM3.64827 11.7984L1.53827 13.4484L3.38629 15.8116L5.49629 14.1616L3.64827 11.7984ZM3.00228 12C3.00228 12.4171 3.04002 12.8153 3.08386 13.1661L6.0607 12.7939C6.02454 12.5047 6.00228 12.2429 6.00228 12H3.00228ZM3.08386 10.8339C3.04002 11.1847 3.00228 11.5829 3.00228 12H6.00228C6.00228 11.7571 6.02454 11.4953 6.0607 11.2061L3.08386 10.8339ZM1.53827 10.5516L3.64827 12.2016L5.49629 9.83839L3.38629 8.18839L1.53827 10.5516ZM1.05089 7.96691C0.524404 8.85788 0.776471 9.95021 1.53281 10.5473L3.39175 8.19268C3.76809 8.48979 3.90016 9.04212 3.63367 9.49309L1.05089 7.96691ZM3.04363 4.51933L1.04363 7.97933L3.64093 9.48067L5.64093 6.02067L3.04363 4.51933ZM5.49888 3.65314C4.58276 3.29465 3.51595 3.65245 3.02544 4.55172L5.65912 5.98828C5.40861 6.44755 4.8618 6.62535 4.40568 6.44686L5.49888 3.65314ZM8.00129 4.65806L5.51129 3.65806L4.39327 6.44194L6.88327 7.44194L8.00129 4.65806ZM8.56345 3.68204C7.81028 3.99071 7.13983 4.40184 6.54228 4.85L8.34228 7.25C8.78473 6.91816 9.23428 6.64929 9.70112 6.45796L8.56345 3.68204ZM8.02747 2.20708L7.64747 4.85708L10.6171 5.28292L10.9971 2.63292L8.02747 2.20708ZM10.0023 0.5C9.03505 0.5 8.15248 1.20499 8.02386 2.23395L11.0007 2.60605C10.9321 3.15501 10.4695 3.5 10.0023 3.5V0.5ZM14.0023 0.5H10.0023V3.5H14.0023V0.5ZM15.9807 2.23395C15.8521 1.20499 14.9695 0.5 14.0023 0.5V3.5C13.5351 3.5 13.0725 3.15501 13.0039 2.60605L15.9807 2.23395ZM16.3571 4.85708L15.9771 2.20708L13.0075 2.63292L13.3875 5.28292L16.3571 4.85708ZM17.4768 4.86106C16.859 4.38579 16.1837 3.98639 15.4411 3.68204L14.3034 6.45796C14.7808 6.65361 15.2256 6.91421 15.6477 7.23894L17.4768 4.86106ZM18.4933 3.65806L16.0033 4.65806L17.1213 7.44194L19.6113 6.44194L18.4933 3.65806ZM20.9791 4.55172C20.4634 3.60628 19.3738 3.337 18.5397 3.64031L19.5649 6.45969C19.1708 6.603 18.6211 6.49372 18.3454 5.98828L20.9791 4.55172ZM22.9609 7.97933L20.9609 4.51933L18.3636 6.02067L20.3636 9.48067L22.9609 7.97933ZM22.4717 10.5473C23.2699 9.91718 23.4278 8.83436 22.9791 8.01172L20.3454 9.44828C20.1367 9.06564 20.1946 8.52282 20.6128 8.19267L22.4717 10.5473ZM20.3563 12.2016L22.4663 10.5516L20.6183 8.18839L18.5083 9.83839L20.3563 12.2016ZM21.0023 12C21.0023 11.572 20.9644 11.1832 20.9207 10.8339L17.9439 11.2061C17.9802 11.4968 18.0023 11.748 18.0023 12H21.0023ZM12.0023 14C10.9007 14 10.0023 13.1016 10.0023 12H7.00228C7.00228 14.7584 9.24385 17 12.0023 17V14ZM14.0023 12C14.0023 13.1016 13.1039 14 12.0023 14V17C14.7607 17 17.0023 14.7584 17.0023 12H14.0023ZM12.0023 10C13.1039 10 14.0023 10.8984 14.0023 12H17.0023C17.0023 9.24157 14.7607 7 12.0023 7V10ZM10.0023 12C10.0023 10.8984 10.9007 10 12.0023 10V7C9.24385 7 7.00228 9.24157 7.00228 12H10.0023Z" fill="#C9C9C9"/>
</svg>
