<svg width="30" height="30" viewBox="0 0 30 30" fill="none" xmlns="http://www.w3.org/2000/svg">
<path fill-rule="evenodd" clip-rule="evenodd" d="M10 24.375H20C20.6875 24.375 21.25 23.8125 21.25 23.125V6.875C21.25 6.1875 20.6875 5.625 20 5.625H10C9.3125 5.625 8.75 6.1875 8.75 6.875V23.125C8.75 23.8125 9.3125 24.375 10 24.375ZM3.75 21.875H6.25C6.9375 21.875 7.5 21.3125 7.5 20.625V9.375C7.5 8.6875 6.9375 8.125 6.25 8.125H3.75C3.0625 8.125 2.5 8.6875 2.5 9.375V20.625C2.5 21.3125 3.0625 21.875 3.75 21.875ZM22.5 20.625V9.375C22.5 8.6875 23.0625 8.125 23.75 8.125H26.25C26.9375 8.125 27.5 8.6875 27.5 9.375V20.625C27.5 21.3125 26.9375 21.875 26.25 21.875H23.75C23.0625 21.875 22.5 21.3125 22.5 20.625Z" fill="#C9C9C9"/>
</svg>
