<svg width="41" height="40" viewBox="0 0 41 40" fill="none" xmlns="http://www.w3.org/2000/svg">
<path fill-rule="evenodd" clip-rule="evenodd" d="M3.8335 8.33337C3.8335 5.57195 6.07207 3.33337 8.8335 3.33337H32.1668C34.9283 3.33337 37.1668 5.57195 37.1668 8.33337V31.6667C37.1668 34.4281 34.9283 36.6667 32.1668 36.6667H8.8335C6.07207 36.6667 3.8335 34.4281 3.8335 31.6667V8.33337Z" stroke="white" stroke-width="2" stroke-linecap="round" stroke-linejoin="round"/>
<path fill-rule="evenodd" clip-rule="evenodd" d="M27.1667 18.9499C27.5885 21.7949 26.1384 24.5897 23.5694 25.8827C21.0004 27.1758 17.8918 26.6756 15.8581 24.6419C13.8244 22.6082 13.3242 19.4996 14.6172 16.9306C15.9103 14.3616 18.7051 12.9114 21.55 13.3333C24.455 13.7641 26.7359 16.045 27.1667 18.9499Z" stroke="white" stroke-width="2" stroke-linecap="round" stroke-linejoin="round"/>
</svg>
