<svg width="243" height="64" viewBox="0 0 243 64" fill="none" xmlns="http://www.w3.org/2000/svg">
<circle cx="32" cy="32" r="30" fill="#191922" stroke="#C9C9C9" stroke-width="3"/>
<path d="M30.5 49V14H33.5L48.5 29L46.5 31L33.5 18V53H30.5L15.5 38L17.5 36L30.5 49Z" fill="white" stroke="white" stroke-width="0.5"/>
<path d="M88.288 41H80.62C80.524 40.856 80.476 40.664 80.476 40.424C80.476 40.16 80.56 39.92 80.728 39.704L83.5 39.416V19.436H81.052C80.668 19.436 80.476 19.268 80.476 18.932C80.476 18.764 80.536 18.476 80.656 18.068L80.728 17.78H88.396C88.492 17.924 88.54 18.116 88.54 18.356C88.54 18.62 88.456 18.86 88.288 19.076L85.516 19.364V39.344H87.964C88.348 39.344 88.54 39.512 88.54 39.848C88.54 40.016 88.48 40.304 88.36 40.712L88.288 41ZM111.028 41H104.08C104.008 40.808 103.972 40.64 103.972 40.496C103.972 40.304 104.044 40.076 104.188 39.812L106.636 39.524V29.3C106.636 25.916 105.208 24.224 102.352 24.224C101.224 24.224 100.18 24.56 99.2199 25.232C98.2839 25.88 97.5279 26.756 96.9519 27.86C96.3759 28.94 96.0879 30.128 96.0879 31.424V39.452H98.1759C98.5599 39.452 98.7519 39.62 98.7519 39.956C98.7519 40.1 98.7039 40.352 98.6079 40.712L98.5359 41H91.5879C91.5159 40.808 91.4799 40.64 91.4799 40.496C91.4799 40.304 91.5519 40.076 91.6959 39.812L94.1439 39.524V24.692H91.4079C91.3359 24.524 91.2999 24.356 91.2999 24.188C91.2999 23.972 91.3719 23.744 91.5159 23.504L95.0799 22.82C95.4879 23.036 95.8239 23.3 96.0879 23.612L95.8359 27.212C96.5079 25.748 97.4319 24.62 98.6079 23.828C99.7839 23.036 101.14 22.64 102.676 22.64C104.596 22.64 106.06 23.216 107.068 24.368C108.076 25.496 108.58 27.14 108.58 29.3V39.452H110.668C111.052 39.452 111.244 39.62 111.244 39.956C111.244 40.1 111.196 40.352 111.1 40.712L111.028 41ZM131.844 40.496L128.28 41.18C127.872 40.964 127.536 40.7 127.272 40.388L127.524 36.86C126.9 38.228 126 39.32 124.824 40.136C123.648 40.952 122.352 41.36 120.936 41.36C119.52 41.36 118.272 40.976 117.192 40.208C116.112 39.416 115.26 38.336 114.636 36.968C114.036 35.576 113.736 33.98 113.736 32.18C113.736 30.26 114.084 28.592 114.78 27.176C115.476 25.736 116.46 24.62 117.732 23.828C119.004 23.036 120.492 22.64 122.196 22.64C124.068 22.64 125.76 23.264 127.272 24.512V18.572H124.356C124.284 18.404 124.248 18.236 124.248 18.068C124.248 17.852 124.32 17.624 124.464 17.384L128.208 16.7C128.616 16.916 128.952 17.18 129.216 17.492V39.308H131.952C132.024 39.476 132.06 39.644 132.06 39.812C132.06 40.028 131.988 40.256 131.844 40.496ZM127.272 32.576V26.348C125.664 24.956 123.972 24.26 122.196 24.26C120.228 24.26 118.668 24.968 117.516 26.384C116.364 27.8 115.788 29.732 115.788 32.18C115.788 33.668 116.016 34.988 116.472 36.14C116.928 37.268 117.552 38.156 118.344 38.804C119.136 39.452 120.06 39.776 121.116 39.776C122.22 39.776 123.24 39.452 124.176 38.804C125.112 38.132 125.856 37.256 126.408 36.176C126.984 35.072 127.272 33.872 127.272 32.576ZM142.244 41H134.576C134.504 40.808 134.468 40.64 134.468 40.496C134.468 40.304 134.54 40.076 134.684 39.812L137.492 39.524V24.692H134.576C134.504 24.524 134.468 24.356 134.468 24.188C134.468 23.972 134.54 23.744 134.684 23.504L138.428 22.82C138.836 23.036 139.172 23.3 139.436 23.612V39.452H141.884C142.268 39.452 142.46 39.62 142.46 39.956C142.46 40.1 142.412 40.352 142.316 40.712L142.244 41ZM139.544 18.248C139.544 18.704 139.4 19.076 139.112 19.364C138.824 19.628 138.428 19.76 137.924 19.76C137.42 19.76 137.024 19.628 136.736 19.364C136.448 19.076 136.304 18.704 136.304 18.248C136.304 17.792 136.448 17.432 136.736 17.168C137.024 16.88 137.42 16.736 137.924 16.736C138.428 16.736 138.824 16.88 139.112 17.168C139.4 17.432 139.544 17.792 139.544 18.248ZM159.206 31.604H147.11V32C147.11 34.328 147.71 36.188 148.91 37.58C150.134 38.948 151.766 39.632 153.806 39.632C154.742 39.632 155.702 39.5 156.686 39.236C157.694 38.972 158.51 38.672 159.134 38.336C159.326 38.528 159.47 38.744 159.566 38.984C159.662 39.2 159.722 39.428 159.746 39.668C157.754 40.796 155.666 41.36 153.482 41.36C151.802 41.36 150.338 40.976 149.09 40.208C147.842 39.416 146.87 38.324 146.174 36.932C145.478 35.516 145.13 33.872 145.13 32C145.13 30.104 145.454 28.46 146.102 27.068C146.774 25.652 147.722 24.56 148.946 23.792C150.17 23.024 151.61 22.64 153.266 22.64C157.682 22.64 159.89 25.268 159.89 30.524C159.698 30.932 159.47 31.292 159.206 31.604ZM147.254 30.056H157.982C157.982 26.168 156.41 24.224 153.266 24.224C151.682 24.224 150.35 24.752 149.27 25.808C148.214 26.864 147.542 28.28 147.254 30.056ZM181.312 41.072L173.284 19.436H171.196C170.812 19.436 170.62 19.268 170.62 18.932C170.62 18.764 170.68 18.476 170.8 18.068L170.872 17.78H177.928C178.024 17.924 178.072 18.116 178.072 18.356C178.072 18.62 177.988 18.86 177.82 19.076L175.408 19.364L182.212 38.048L189.016 19.436H186.928C186.544 19.436 186.352 19.268 186.352 18.932C186.352 18.764 186.412 18.476 186.532 18.068L186.604 17.78H193.48C193.576 17.924 193.624 18.116 193.624 18.356C193.624 18.62 193.54 18.86 193.372 19.076L190.96 19.364L182.896 41.072C182.656 41.12 182.392 41.144 182.104 41.144C181.816 41.144 181.552 41.12 181.312 41.072ZM202.572 41H194.904C194.832 40.808 194.796 40.64 194.796 40.496C194.796 40.304 194.868 40.076 195.012 39.812L197.82 39.524V24.692H194.904C194.832 24.524 194.796 24.356 194.796 24.188C194.796 23.972 194.868 23.744 195.012 23.504L198.756 22.82C199.164 23.036 199.5 23.3 199.764 23.612V39.452H202.212C202.596 39.452 202.788 39.62 202.788 39.956C202.788 40.1 202.74 40.352 202.644 40.712L202.572 41ZM199.872 18.248C199.872 18.704 199.728 19.076 199.44 19.364C199.152 19.628 198.756 19.76 198.252 19.76C197.748 19.76 197.352 19.628 197.064 19.364C196.776 19.076 196.632 18.704 196.632 18.248C196.632 17.792 196.776 17.432 197.064 17.168C197.352 16.88 197.748 16.736 198.252 16.736C198.756 16.736 199.152 16.88 199.44 17.168C199.728 17.432 199.872 17.792 199.872 18.248ZM207.15 41.108V18.572H204.234C204.162 18.404 204.126 18.236 204.126 18.068C204.126 17.852 204.198 17.624 204.342 17.384L208.086 16.7C208.494 16.916 208.83 17.18 209.094 17.492V26.636C209.766 25.412 210.654 24.44 211.758 23.72C212.886 23 214.11 22.64 215.43 22.64C216.822 22.64 218.058 23.036 219.138 23.828C220.242 24.596 221.094 25.676 221.694 27.068C222.318 28.436 222.63 30.02 222.63 31.82C222.63 33.74 222.282 35.42 221.586 36.86C220.89 38.276 219.906 39.38 218.634 40.172C217.362 40.964 215.874 41.36 214.17 41.36C212.154 41.36 210.402 40.688 208.914 39.344L208.518 41.108C208.326 41.156 208.098 41.18 207.834 41.18C207.57 41.18 207.342 41.156 207.15 41.108ZM209.094 31.424V37.652C210.702 39.044 212.394 39.74 214.17 39.74C216.162 39.74 217.722 39.032 218.85 37.616C220.002 36.2 220.578 34.268 220.578 31.82C220.578 30.332 220.35 29.024 219.894 27.896C219.438 26.744 218.802 25.844 217.986 25.196C217.194 24.548 216.282 24.224 215.25 24.224C214.146 24.224 213.126 24.56 212.19 25.232C211.254 25.88 210.498 26.756 209.922 27.86C209.37 28.94 209.094 30.128 209.094 31.424ZM239.819 31.604H227.723V32C227.723 34.328 228.323 36.188 229.523 37.58C230.747 38.948 232.379 39.632 234.419 39.632C235.355 39.632 236.315 39.5 237.299 39.236C238.307 38.972 239.123 38.672 239.747 38.336C239.939 38.528 240.083 38.744 240.179 38.984C240.275 39.2 240.335 39.428 240.359 39.668C238.367 40.796 236.279 41.36 234.095 41.36C232.415 41.36 230.951 40.976 229.703 40.208C228.455 39.416 227.483 38.324 226.787 36.932C226.091 35.516 225.743 33.872 225.743 32C225.743 30.104 226.067 28.46 226.715 27.068C227.387 25.652 228.335 24.56 229.559 23.792C230.783 23.024 232.223 22.64 233.879 22.64C238.295 22.64 240.503 25.268 240.503 30.524C240.311 30.932 240.083 31.292 239.819 31.604ZM227.867 30.056H238.595C238.595 26.168 237.023 24.224 233.879 24.224C232.295 24.224 230.963 24.752 229.883 25.808C228.827 26.864 228.155 28.28 227.867 30.056Z" fill="white"/>
</svg>
