<svg width="248" height="100" viewBox="0 0 248 100" fill="none" xmlns="http://www.w3.org/2000/svg">
<circle cx="50" cy="50" r="48" fill="#191922" stroke="#C9C9C9" stroke-width="4"/>
<path d="M46.5 77V20H52.5L77 45L73 49L52.5 28V85H46.5L22 60L26 56L46.5 77Z" fill="white" stroke="white" stroke-width="0.5"/>
<path d="M132.48 56.048L128.52 49.172H123.516V57.344H125.604C125.988 57.344 126.18 57.512 126.18 57.848C126.18 58.016 126.12 58.304 126 58.712L125.928 59H118.98C118.884 58.856 118.836 58.664 118.836 58.424C118.836 58.16 118.92 57.92 119.088 57.704L121.5 57.416V37.436H119.412C119.028 37.436 118.836 37.268 118.836 36.932C118.836 36.764 118.896 36.476 119.016 36.068L119.088 35.78H128.556C129.9 35.78 131.04 35.996 131.976 36.428C132.912 36.836 133.668 37.388 134.244 38.084C134.82 38.756 135.24 39.488 135.504 40.28C135.768 41.048 135.9 41.78 135.9 42.476C135.9 43.292 135.72 44.156 135.36 45.068C135.024 45.956 134.46 46.76 133.668 47.48C132.876 48.2 131.844 48.692 130.572 48.956L134.532 55.544C134.988 56.312 135.396 56.828 135.756 57.092C136.116 57.332 136.596 57.452 137.196 57.452C137.388 57.452 137.592 57.452 137.808 57.452C138.048 57.428 138.252 57.404 138.42 57.38C138.612 57.716 138.72 58.16 138.744 58.712C137.928 59 137.16 59.144 136.44 59.144C135.672 59.144 134.976 58.904 134.352 58.424C133.728 57.92 133.104 57.128 132.48 56.048ZM123.516 47.516H128.556C130.164 47.516 131.436 47.036 132.372 46.076C133.308 45.092 133.776 43.892 133.776 42.476C133.776 41.06 133.308 39.872 132.372 38.912C131.436 37.928 130.164 37.436 128.556 37.436H123.516V47.516ZM154.421 49.604H142.325V50C142.325 52.328 142.925 54.188 144.125 55.58C145.349 56.948 146.981 57.632 149.021 57.632C149.957 57.632 150.917 57.5 151.901 57.236C152.909 56.972 153.725 56.672 154.349 56.336C154.541 56.528 154.685 56.744 154.781 56.984C154.877 57.2 154.937 57.428 154.961 57.668C152.969 58.796 150.881 59.36 148.697 59.36C147.017 59.36 145.553 58.976 144.305 58.208C143.057 57.416 142.085 56.324 141.389 54.932C140.693 53.516 140.345 51.872 140.345 50C140.345 48.104 140.669 46.46 141.317 45.068C141.989 43.652 142.937 42.56 144.161 41.792C145.385 41.024 146.825 40.64 148.481 40.64C152.897 40.64 155.105 43.268 155.105 48.524C154.913 48.932 154.685 49.292 154.421 49.604ZM142.469 48.056H153.197C153.197 44.168 151.625 42.224 148.481 42.224C146.897 42.224 145.565 42.752 144.485 43.808C143.429 44.864 142.757 46.28 142.469 48.056ZM163.187 55.508H167.291C169.283 55.508 170.855 55.94 172.007 56.804C173.183 57.668 173.771 58.832 173.771 60.296C173.771 62.024 172.991 63.404 171.431 64.436C169.871 65.492 167.795 66.02 165.203 66.02C162.683 66.02 160.703 65.552 159.263 64.616C157.823 63.68 157.103 62.396 157.103 60.764C157.103 59.012 158.147 57.536 160.235 56.336C159.635 55.856 159.335 55.196 159.335 54.356C159.335 53.204 159.923 52.112 161.099 51.08C159.779 49.976 159.119 48.476 159.119 46.58C159.119 44.804 159.695 43.376 160.847 42.296C162.023 41.192 163.559 40.64 165.455 40.64C167.087 40.64 168.443 41.048 169.523 41.864L173.375 41.396C173.759 41.372 173.951 41.54 173.951 41.9C173.951 42.044 173.903 42.296 173.807 42.656L173.699 43.052H170.711C171.047 43.532 171.311 44.072 171.503 44.672C171.695 45.248 171.791 45.884 171.791 46.58C171.791 48.356 171.203 49.796 170.027 50.9C168.875 51.98 167.351 52.52 165.455 52.52C164.231 52.52 163.139 52.28 162.179 51.8C161.507 52.4 161.171 53.108 161.171 53.924C161.171 54.98 161.843 55.508 163.187 55.508ZM167.291 57.092H162.431C162.095 57.092 161.771 57.056 161.459 56.984C159.875 58.016 159.083 59.24 159.083 60.656C159.083 61.808 159.635 62.72 160.739 63.392C161.843 64.088 163.331 64.436 165.203 64.436C167.195 64.436 168.791 64.052 169.991 63.284C171.191 62.54 171.791 61.544 171.791 60.296C171.791 59.288 171.395 58.508 170.603 57.956C169.811 57.38 168.707 57.092 167.291 57.092ZM169.955 46.58C169.955 45.236 169.547 44.168 168.731 43.376C167.915 42.584 166.823 42.188 165.455 42.188C164.087 42.188 162.995 42.584 162.179 43.376C161.363 44.168 160.955 45.236 160.955 46.58C160.955 47.924 161.363 48.992 162.179 49.784C162.995 50.576 164.087 50.972 165.455 50.972C166.823 50.972 167.915 50.576 168.731 49.784C169.547 48.992 169.955 47.924 169.955 46.58ZM184.111 59H176.443C176.371 58.808 176.335 58.64 176.335 58.496C176.335 58.304 176.407 58.076 176.551 57.812L179.359 57.524V42.692H176.443C176.371 42.524 176.335 42.356 176.335 42.188C176.335 41.972 176.407 41.744 176.551 41.504L180.295 40.82C180.703 41.036 181.039 41.3 181.303 41.612V57.452H183.751C184.135 57.452 184.327 57.62 184.327 57.956C184.327 58.1 184.279 58.352 184.183 58.712L184.111 59ZM181.411 36.248C181.411 36.704 181.267 37.076 180.979 37.364C180.691 37.628 180.295 37.76 179.791 37.76C179.287 37.76 178.891 37.628 178.603 37.364C178.315 37.076 178.171 36.704 178.171 36.248C178.171 35.792 178.315 35.432 178.603 35.168C178.891 34.88 179.287 34.736 179.791 34.736C180.295 34.736 180.691 34.88 180.979 35.168C181.267 35.432 181.411 35.792 181.411 36.248ZM187.645 57.092L187.573 53.168C187.741 53.096 187.921 53.06 188.113 53.06C188.353 53.06 188.581 53.132 188.797 53.276L189.553 56.984C190.729 57.512 192.085 57.776 193.621 57.776C195.109 57.776 196.285 57.464 197.149 56.84C198.013 56.216 198.445 55.376 198.445 54.32C198.445 53.456 198.109 52.724 197.437 52.124C196.789 51.524 195.757 51.02 194.341 50.612C192.733 50.156 191.461 49.688 190.525 49.208C189.589 48.704 188.917 48.14 188.509 47.516C188.125 46.868 187.933 46.1 187.933 45.212C187.933 43.796 188.473 42.68 189.553 41.864C190.657 41.048 192.157 40.64 194.053 40.64C194.917 40.64 195.805 40.724 196.717 40.892C197.653 41.06 198.349 41.276 198.805 41.54C199.069 41.852 199.297 42.212 199.489 42.62L199.561 46.184C199.369 46.256 199.189 46.292 199.021 46.292C198.781 46.292 198.553 46.22 198.337 46.076L197.581 42.764C196.549 42.38 195.409 42.188 194.161 42.188C191.305 42.188 189.877 43.196 189.877 45.212C189.877 45.764 190.009 46.244 190.273 46.652C190.561 47.036 191.053 47.396 191.749 47.732C192.445 48.068 193.405 48.428 194.629 48.812C196.645 49.412 198.109 50.156 199.021 51.044C199.957 51.908 200.425 53 200.425 54.32C200.425 55.88 199.825 57.116 198.625 58.028C197.425 58.916 195.757 59.36 193.621 59.36C192.613 59.36 191.629 59.252 190.669 59.036C189.733 58.82 188.953 58.532 188.329 58.172C188.065 57.86 187.837 57.5 187.645 57.092ZM205.53 53.672V42.584H202.794C202.722 42.392 202.686 42.224 202.686 42.08C202.686 41.84 202.758 41.6 202.902 41.36L205.53 41.036L206.106 37.256C206.298 37.208 206.526 37.184 206.79 37.184C206.958 37.184 207.186 37.208 207.474 37.256V41H212.442C212.826 41 213.018 41.168 213.018 41.504C213.018 41.648 212.97 41.9 212.874 42.26L212.802 42.584H207.474V52.952C207.474 54.08 207.534 54.992 207.654 55.688C207.798 56.36 208.074 56.852 208.482 57.164C208.914 57.476 209.574 57.632 210.462 57.632C210.894 57.632 211.374 57.596 211.902 57.524C212.454 57.452 212.994 57.344 213.522 57.2C213.738 57.584 213.87 58.04 213.918 58.568C213.414 58.808 212.802 59 212.082 59.144C211.362 59.288 210.642 59.36 209.922 59.36C208.506 59.36 207.414 58.952 206.646 58.136C205.902 57.32 205.53 55.832 205.53 53.672ZM229.55 49.604H217.454V50C217.454 52.328 218.054 54.188 219.254 55.58C220.478 56.948 222.11 57.632 224.15 57.632C225.086 57.632 226.046 57.5 227.03 57.236C228.038 56.972 228.854 56.672 229.478 56.336C229.67 56.528 229.814 56.744 229.91 56.984C230.006 57.2 230.066 57.428 230.09 57.668C228.098 58.796 226.01 59.36 223.826 59.36C222.146 59.36 220.682 58.976 219.434 58.208C218.186 57.416 217.214 56.324 216.518 54.932C215.822 53.516 215.474 51.872 215.474 50C215.474 48.104 215.798 46.46 216.446 45.068C217.118 43.652 218.066 42.56 219.29 41.792C220.514 41.024 221.954 40.64 223.61 40.64C228.026 40.64 230.234 43.268 230.234 48.524C230.042 48.932 229.814 49.292 229.55 49.604ZM217.598 48.056H228.326C228.326 44.168 226.754 42.224 223.61 42.224C222.026 42.224 220.694 42.752 219.614 43.808C218.558 44.864 217.886 46.28 217.598 48.056ZM241.827 59H233.439C233.367 58.808 233.331 58.64 233.331 58.496C233.331 58.304 233.403 58.076 233.547 57.812L235.995 57.524V42.692H233.259C233.187 42.524 233.151 42.356 233.151 42.188C233.151 41.972 233.223 41.744 233.367 41.504L236.931 40.82C237.339 41.036 237.675 41.3 237.939 41.612L237.471 46.004C238.119 44.42 239.019 43.16 240.171 42.224C241.323 41.264 242.583 40.784 243.951 40.784C244.215 40.784 244.515 40.808 244.851 40.856C245.211 40.88 245.535 40.928 245.823 41C246.087 41.312 246.315 41.672 246.507 42.08L246.579 46.004C246.411 46.076 246.231 46.112 246.039 46.112C245.799 46.112 245.571 46.04 245.355 45.896L244.563 42.404C244.467 42.38 244.371 42.368 244.275 42.368C244.203 42.368 244.131 42.368 244.059 42.368C243.027 42.368 242.043 42.728 241.107 43.448C240.171 44.144 239.403 45.068 238.803 46.22C238.227 47.348 237.939 48.536 237.939 49.784V57.452H241.467C241.851 57.452 242.043 57.62 242.043 57.956C242.043 58.1 241.995 58.352 241.899 58.712L241.827 59Z" fill="white"/>
</svg>
