<svg width="30" height="30" viewBox="0 0 30 30" fill="none" xmlns="http://www.w3.org/2000/svg">
<path fill-rule="evenodd" clip-rule="evenodd" d="M21.25 8.74999H8.75001V12.5C8.75001 13.1875 8.18751 13.75 7.50001 13.75C6.81251 13.75 6.25001 13.1875 6.25001 12.5V7.49999C6.25001 6.81249 6.81251 6.24999 7.50001 6.24999H21.25V4.01249C21.25 3.44999 21.925 3.17499 22.3125 3.56249L25.8 7.04999C26.05 7.29999 26.05 7.68749 25.8 7.93749L22.3125 11.425C21.925 11.825 21.25 11.55 21.25 10.9875V8.74999ZM8.75001 21.25H21.25V17.5C21.25 16.8125 21.8125 16.25 22.5 16.25C23.1875 16.25 23.75 16.8125 23.75 17.5V22.5C23.75 23.1875 23.1875 23.75 22.5 23.75H8.75001V25.9875C8.75001 26.55 8.07501 26.825 7.68751 26.4375L4.20001 22.95C3.95001 22.7 3.95001 22.3125 4.20001 22.0625L7.68751 18.575C8.07501 18.175 8.75001 18.45 8.75001 19.0125V21.25Z" fill="#C9C9C9"/>
</svg>
