<svg width="30" height="30" viewBox="0 0 30 30" fill="none" xmlns="http://www.w3.org/2000/svg">
<path fill-rule="evenodd" clip-rule="evenodd" d="M18.9328 6.0625L20.4203 7.55L5.62032 22.35C5.13282 22.8375 5.13282 23.625 5.62032 24.1125C6.10782 24.6 6.89532 24.6 7.38282 24.1125L22.1953 9.325L23.6828 10.8125C24.0703 11.2 24.7453 10.925 24.7453 10.3625V5.625C24.7453 5.275 24.4703 5 24.1203 5H19.3828C18.8203 5 18.5453 5.675 18.9328 6.0625ZM12.9828 11.4625L7.39533 5.875C7.16179 5.64093 6.84472 5.50939 6.51408 5.50939C6.18343 5.50939 5.86636 5.64093 5.63283 5.875C5.14533 6.3625 5.14533 7.15 5.63283 7.6375L11.2078 13.2125L12.9828 11.4625ZM16.5203 18.525L18.2828 16.7625L22.1953 20.6875L23.6828 19.2C24.0703 18.8 24.7453 19.075 24.7453 19.6375V24.375C24.7453 24.725 24.4703 25 24.1203 25H19.3828C18.8203 25 18.5453 24.325 18.9328 23.9375L20.4328 22.4375L16.5203 18.525Z" fill="#C9C9C9"/>
</svg>
