<svg width="30" height="30" viewBox="0 0 30 30" fill="none" xmlns="http://www.w3.org/2000/svg">
<path fill-rule="evenodd" clip-rule="evenodd" d="M4.5375 6.30623C4.05 5.81873 4.05 5.03123 4.5375 4.54373C5.0375 4.05623 5.825 4.05623 6.3125 4.54373L25.45 23.6937C25.9375 24.1812 25.9375 24.9687 25.45 25.4562C24.9625 25.9437 24.175 25.9437 23.6875 25.4562L22.0125 23.7812C21.175 24.4562 20.2375 25.0062 19.2375 25.4187C18.4125 25.7562 17.5 25.1812 17.5 24.2812C17.5 23.7937 17.775 23.3187 18.225 23.1312C18.95 22.8437 19.6125 22.4562 20.225 21.9937L15 16.7687V21.9812C15 23.0937 13.65 23.6562 12.8625 22.8687L8.75 18.7562H5C4.3125 18.7562 3.75 18.1937 3.75 17.5062V12.5062C3.75 11.8187 4.3125 11.2562 5 11.2562H8.75L9.1125 10.8812L4.5375 6.30623ZM23.2375 17.9312C23.5625 17.0187 23.75 16.0312 23.75 15.0062C23.75 11.3312 21.475 8.18122 18.2625 6.88123C17.8125 6.70623 17.5 6.29373 17.5 5.81872V5.58123C17.5 4.79373 18.2875 4.21873 19.025 4.50623C23.25 6.11873 26.25 10.2187 26.25 15.0062C26.25 16.7437 25.85 18.3812 25.15 19.8437L23.2375 17.9312ZM12.8625 7.14373L12.65 7.35623L15 9.70623V8.01873C15 6.90622 13.65 6.35623 12.8625 7.14373ZM17.5 9.96873C19.35 10.8937 20.625 12.7937 20.625 15.0062C20.625 15.1062 20.6125 15.2062 20.6 15.3062L20.6 15.3062L17.5 12.2062V9.96873Z" fill="#C9C9C9"/>
</svg>
