<svg width="30" height="30" viewBox="0 0 30 30" fill="none" xmlns="http://www.w3.org/2000/svg">
<path fill-rule="evenodd" clip-rule="evenodd" d="M17.5 5.8148V5.5648C17.5 4.7773 18.2875 4.2148 19.0125 4.5023C23.25 6.1148 26.25 10.2023 26.25 15.0023C26.25 19.8023 23.25 23.8898 19.0125 25.5023C18.2875 25.7773 17.5 25.2273 17.5 24.4398V24.1898C17.5 23.7148 17.8 23.3023 18.25 23.1273C21.475 21.8398 23.75 18.6773 23.75 15.0023C23.75 11.3273 21.475 8.1648 18.25 6.8773C17.8125 6.7023 17.5 6.2898 17.5 5.8148ZM3.75 12.5023V17.5023C3.75 18.1898 4.3125 18.7523 5 18.7523H8.75L12.8625 22.8648C13.65 23.6523 15 23.0898 15 21.9773V8.0148C15 6.9023 13.65 6.3398 12.8625 7.1273L8.75 11.2523H5C4.3125 11.2523 3.75 11.8148 3.75 12.5023ZM20.625 15.0023C20.625 12.7898 19.35 10.8898 17.5 9.9648V20.0273C19.35 19.1148 20.625 17.2148 20.625 15.0023Z" fill="#C9C9C9"/>
</svg>
